<svg width="1920" height="240" viewBox="0 0 1920 240" xmlns="http://www.w3.org/2000/svg"><path d="M1920,240C1601.5,277.3333333333333,275.1666666666667,271.3333333333333,0,240C-275.1666666666667,208.66666666666666,178.16666666666669,75.16666666666667,269,52C359.8333333333333,28.833333333333332,452.8333333333333,107.33333333333333,545,101C637.1666666666666,94.66666666666667,730.5,23.666666666666664,822,14C913.5,4.333333333333334,1003.5,36,1094,43C1184.5,50,1274.1666666666667,57.5,1365,56C1455.8333333333333,54.5,1548,40.666666666666664,1639,34C1730,27.333333333333332,1864.1666666666667,-18.333333333333336,1911,16C1957.8333333333333,50.333333333333336,2238.5,202.66666666666666,1920,240C1601.5,277.3333333333333,275.1666666666667,271.3333333333333,0,240" fill="#ffffff"/></svg>